control3min_grf.mot
version=1
nRows=10
nColumns 19
inDegrees=yes
endheader
time	1_ground_force_vx	1_ground_force_vy	1_ground_force_vz	1_ground_force_px	1_ground_force_py	1_ground_force_pz	1_ground_torque_x	1_ground_torque_y	1_ground_torque_z	2_ground_force_vx	2_ground_force_vy	2_ground_force_vz	2_ground_force_px	2_ground_force_py	2_ground_force_pz	2_ground_torque_x	2_ground_torque_y	2_ground_torque_z
            2.502500	            9.694079	          409.637267	          -15.005585	           -0.225999	            0.006311	           -0.425466	            0.005758	            0.243333	           -0.008914	           -2.355479	          409.617340	           32.153314	           -0.190337	            0.005785	           -0.694449	           -0.004304	            0.748380	            0.058745
            2.503000	            9.833785	          403.326256	          -14.620277	           -0.225926	            0.006312	           -0.425768	            0.003242	            0.132975	           -0.004820	           -1.912542	          403.725949	           32.179037	           -0.190271	            0.005784	           -0.694276	           -0.003108	            0.655982	            0.052285
            2.503500	            9.744113	          396.655002	          -14.327658	           -0.226183	            0.006311	           -0.425524	            0.004347	            0.176942	           -0.006391	           -1.844027	          397.651406	           31.547269	           -0.190230	            0.005784	           -0.694130	           -0.002680	            0.577889	            0.045846
            2.504000	            9.974055	          391.427765	          -14.442354	           -0.226099	            0.006310	           -0.425263	            0.006564	            0.257607	           -0.009505	           -1.356357	          392.313611	           31.293375	           -0.190088	            0.005785	           -0.694191	           -0.001949	            0.563607	            0.044957
            2.504500	           10.296970	          384.756590	          -14.150759	           -0.225682	            0.006310	           -0.425391	            0.009268	            0.346317	           -0.012737	           -1.384077	          386.974350	           30.945843	           -0.190011	            0.005785	           -0.694208	           -0.002336	            0.653064	            0.052225
            2.505000	           10.344258	          378.086407	          -14.087761	           -0.225994	            0.006311	           -0.425608	            0.007880	            0.288034	           -0.010732	           -0.806051	          382.557824	           30.648266	           -0.190404	            0.005787	           -0.695000	           -0.001302	            0.617903	            0.049503
            2.505500	           10.620971	          372.136679	          -13.884672	           -0.225950	            0.006313	           -0.425889	            0.006773	            0.237304	           -0.008854	           -0.830427	          376.297631	           30.344377	           -0.190022	            0.005787	           -0.694590	           -0.001501	            0.680182	            0.054849
            2.506000	           10.485062	          367.628665	          -13.582663	           -0.225836	            0.006308	           -0.424944	            0.002932	            0.102814	           -0.003799	           -0.669959	          370.773841	           30.277678	           -0.190103	            0.005786	           -0.694594	           -0.001203	            0.665753	            0.054366
            2.506500	           10.945312	          360.777675	          -13.383894	           -0.225898	            0.006311	           -0.425540	            0.003238	            0.106742	           -0.003960	           -0.188209	          367.092871	           30.170481	           -0.190288	            0.005787	           -0.695090	           -0.000318	            0.620238	            0.050976
            2.507000	           11.175499	          354.829118	          -13.455826	           -0.225890	            0.006311	           -0.425643	            0.006653	            0.211230	           -0.008010	            0.021562	          360.834361	           29.631852	           -0.190127	            0.005787	           -0.694975	            0.000035	            0.586477	            0.048162
